<?xml version="1.0" standalone="no"?>
<!DOCTYPE svg PUBLIC "-//W3C//DTD SVG 20010904//EN"
 "http://www.w3.org/TR/2001/REC-SVG-20010904/DTD/svg10.dtd">
<svg version="1.0" xmlns="http://www.w3.org/2000/svg"
 width="1280.000000pt" height="1225.000000pt" viewBox="0 0 1280.000000 1225.000000"
 preserveAspectRatio="xMidYMid meet">
<metadata>
Created by potrace 1.15, written by Peter Selinger 2001-2017
</metadata>
<g transform="translate(0.000000,1225.000000) scale(0.100000,-0.100000)"
fill="#000000" stroke="none">
<path d="M5244 12230 c-33 -11 -69 -29 -79 -39 -17 -19 -17 -23 1 -87 24 -88
13 -136 -67 -304 l-61 -130 85 -113 c92 -123 148 -210 201 -316 53 -104 90
-104 105 0 11 77 31 110 139 221 l95 98 -75 82 c-110 122 -111 124 -78 252
l20 78 -25 57 c-17 42 -23 69 -18 94 9 60 -3 86 -50 107 -53 25 -115 24 -193
0z"/>
<path d="M4310 12155 c-163 -26 -288 -74 -504 -193 l-138 -77 6 -45 c41 -293
40 -388 -6 -437 -21 -23 -27 -24 -96 -17 -57 5 -82 3 -117 -11 -53 -20 -95
-66 -95 -104 0 -71 -267 -250 -425 -286 -86 -19 -260 -104 -300 -145 -26 -27
-30 -40 -33 -101 -3 -41 1 -81 8 -99 17 -40 140 -156 285 -267 66 -51 347
-263 625 -471 527 -394 770 -581 831 -638 43 -42 126 -59 234 -50 137 12 241
78 785 495 250 192 310 241 310 256 0 15 -47 53 -143 114 -165 106 -242 273
-188 409 27 68 27 168 2 362 -11 80 -19 177 -18 215 2 65 -1 77 -45 167 -56
116 -95 178 -204 325 l-83 111 70 151 c43 93 72 169 76 200 5 46 3 52 -24 79
-33 34 -84 47 -238 62 -142 14 -474 11 -575 -5z"/>
<path d="M3083 11978 c-11 -13 -35 -45 -53 -73 -55 -81 -147 -172 -265 -260
-213 -160 -291 -276 -316 -474 -10 -78 -17 -101 -49 -149 -63 -98 -191 -202
-430 -350 l-35 -22 265 0 c153 0 281 5 302 10 43 12 53 26 63 90 4 25 16 59
27 77 39 65 203 160 334 193 95 24 146 47 234 104 104 67 160 122 160 157 0
36 50 88 116 120 34 16 74 25 132 29 93 6 102 12 101 75 0 96 -18 294 -28 312
-14 26 -47 39 -156 58 -118 21 -229 58 -285 95 -54 36 -89 38 -117 8z"/>
<path d="M5682 11523 c-37 -18 -166 -152 -189 -196 -8 -16 -22 -53 -30 -81 -8
-28 -31 -82 -51 -119 -32 -62 -36 -76 -35 -141 1 -39 9 -122 17 -184 22 -157
21 -249 -4 -307 -41 -96 -15 -214 67 -306 26 -28 97 -84 159 -125 61 -40 114
-80 118 -89 14 -38 223 -105 377 -120 54 -6 74 -4 105 11 124 60 343 -26 897
-350 391 -228 427 -244 435 -189 2 16 13 25 35 31 20 5 37 18 46 36 22 46 30
358 30 1166 l1 755 -163 77 c-194 91 -276 118 -364 118 -126 0 -178 -56 -176
-189 2 -102 -31 -161 -127 -224 -35 -24 -58 -21 -141 17 -41 19 -108 44 -149
56 -243 70 -212 52 -343 203 -60 70 -112 95 -282 136 -147 35 -186 37 -233 14z"/>
<path d="M7716 11253 c-4 -21 -9 -378 -13 -794 l-5 -757 208 -1 c115 -1 426
-6 692 -12 l483 -11 48 30 c27 16 89 62 139 102 l91 73 -20 51 c-32 82 -208
416 -318 606 -124 212 -189 343 -198 393 -5 33 -3 37 15 37 11 0 46 -21 77
-46 31 -25 58 -44 61 -41 2 2 -8 59 -23 126 -31 144 -42 156 -163 191 -111 31
-228 36 -345 15 -119 -21 -183 -17 -450 30 -104 18 -209 36 -231 40 l-42 6 -6
-38z"/>
<path d="M1795 10457 c-54 -83 -136 -217 -181 -297 -45 -80 -127 -214 -182
-298 -112 -170 -133 -215 -110 -239 23 -22 126 -33 331 -33 l187 0 0 80 c0
112 14 141 93 190 35 22 70 53 77 68 10 19 15 89 18 239 l4 213 261 2 262 3 3
113 3 112 -333 0 -333 0 -100 -153z"/>
<path d="M2605 10465 c-12 -113 -2 -109 -288 -113 l-244 -3 -6 -198 c-7 -240
-11 -253 -93 -302 -80 -47 -94 -77 -94 -201 l0 -96 -295 -4 c-178 -2 -298 -7
-303 -13 -7 -6 4 -42 29 -99 53 -118 77 -209 91 -341 10 -96 9 -120 -6 -190
-10 -44 -20 -93 -23 -109 l-6 -28 44 7 c170 30 318 -55 450 -257 28 -43 57
-78 65 -78 7 0 23 19 36 43 15 27 37 49 63 62 38 19 64 20 458 23 l417 3 0
712 c0 392 4 750 10 796 10 85 27 121 59 121 32 0 44 16 32 39 -11 20 -365
291 -381 291 -4 0 -11 -29 -15 -65z"/>
<path d="M2940 10153 c0 -5 -1 -370 -3 -813 l-2 -805 -425 -5 c-469 -6 -483
-7 -514 -69 -28 -54 -20 -98 36 -210 46 -91 53 -113 53 -164 0 -46 4 -62 19
-72 34 -25 103 -29 190 -10 90 18 149 11 178 -22 25 -29 54 -94 68 -153 17
-70 28 -87 64 -100 33 -11 178 -13 250 -4 l47 7 130 193 c71 105 155 218 187
251 69 70 150 114 258 142 105 27 146 44 219 94 92 62 149 84 295 112 74 14
182 35 239 46 58 11 129 30 159 42 78 31 84 51 89 302 5 235 2 245 -68 260
-50 11 -79 30 -79 50 0 63 -929 745 -1228 902 -47 24 -76 33 -113 33 -27 0
-49 -3 -49 -7z"/>
<path d="M5509 9773 c-579 -439 -793 -582 -900 -598 -25 -4 -52 -10 -59 -15
-18 -11 -29 -87 -30 -220 -1 -154 -15 -244 -48 -310 -40 -80 -57 -89 -197
-100 -170 -14 -295 -31 -332 -46 -40 -16 -47 -41 -40 -137 4 -67 7 -73 43
-107 39 -36 383 -250 402 -250 5 0 37 44 70 98 102 165 180 227 283 224 56 -1
73 -7 254 -85 185 -80 344 -97 470 -51 130 47 137 48 206 25 84 -28 138 -27
199 4 54 27 89 72 114 142 19 55 77 154 187 320 106 160 127 213 141 357 27
287 -30 606 -135 748 -22 30 -52 44 -114 52 -23 3 -102 26 -176 51 -74 25
-137 45 -140 45 -3 0 -92 -66 -198 -147z"/>
<path d="M6228 9830 c-45 -35 -38 -78 45 -275 37 -88 51 -212 43 -395 -8 -175
-21 -266 -47 -327 -10 -23 -68 -116 -128 -206 -133 -198 -155 -243 -155 -317
1 -63 22 -109 121 -268 35 -56 79 -135 98 -174 78 -162 69 -226 -42 -287 -44
-24 -63 -40 -63 -54 0 -11 24 -58 54 -106 29 -47 64 -106 77 -131 30 -56 57
-70 138 -70 126 0 268 58 397 163 43 35 104 77 134 92 68 34 434 287 513 355
4 4 -17 58 -47 121 -70 148 -81 196 -66 291 25 166 106 325 184 362 52 24 57
56 59 363 l2 265 -180 105 c-656 383 -893 498 -1050 510 -51 4 -64 2 -87 -17z"/>
<path d="M9245 9753 l-110 -95 -716 6 -716 7 -5 -148 c-3 -81 -9 -156 -13
-166 -4 -10 -22 -24 -41 -32 -25 -10 -35 -22 -43 -52 -5 -21 -14 -176 -18
-344 -8 -262 -12 -311 -26 -333 -10 -14 -26 -26 -37 -26 -12 0 -40 -19 -63
-43 -53 -52 -100 -160 -118 -270 -16 -98 -7 -147 57 -293 26 -60 47 -122 47
-137 0 -20 9 -34 30 -49 36 -26 78 -113 113 -234 37 -129 64 -174 130 -213 53
-32 86 -68 208 -225 32 -42 82 -95 110 -118 83 -67 106 -97 106 -141 0 -72 87
-197 137 -197 13 0 51 11 85 25 34 14 74 25 88 25 17 0 65 -25 124 -64 129
-87 165 -91 409 -50 136 23 205 48 247 89 32 31 47 38 102 45 84 10 108 23
108 58 0 32 -13 52 -98 152 -36 41 -75 98 -87 126 -26 56 -57 83 -164 140
-127 67 -130 104 -13 173 104 62 115 78 113 154 -3 114 63 274 199 487 84 131
107 176 120 237 6 27 23 60 38 76 l27 28 -19 47 c-67 167 6 361 191 512 43 35
80 65 82 66 2 2 -26 36 -61 76 -36 40 -80 95 -98 122 -41 61 -80 168 -80 222
0 67 -18 145 -49 209 -32 68 -159 245 -175 244 -6 0 -60 -43 -121 -96z"/>
<path d="M9815 8908 c-122 -34 -247 -232 -249 -395 -1 -61 2 -76 20 -93 23
-23 33 -24 204 -15 251 15 338 -17 521 -187 143 -134 186 -167 217 -168 27 0
27 3 5 38 -39 61 -117 142 -279 287 -237 214 -285 273 -319 396 -34 121 -63
154 -120 137z"/>
<path d="M0 8858 c0 -21 29 -58 46 -58 11 0 14 9 12 33 -2 27 -8 33 -30 35
-18 2 -28 -1 -28 -10z"/>
<path d="M1415 8731 c-43 -20 -111 -87 -163 -160 -23 -32 -32 -56 -32 -83 0
-42 34 -117 75 -166 l27 -32 107 2 c76 1 122 -4 157 -16 63 -20 100 -52 84
-71 -14 -17 -53 -24 -242 -40 -187 -15 -203 -22 -176 -78 9 -19 25 -37 36 -39
11 -3 59 5 108 18 178 47 207 48 465 10 106 -16 175 -9 195 19 16 22 5 44
-108 227 -226 364 -378 481 -533 409z"/>
<path d="M382 8561 c-8 -4 -12 -19 -10 -32 2 -19 9 -24 33 -24 33 0 45 25 25
50 -14 17 -29 19 -48 6z"/>
<path d="M3805 8449 c-16 -5 -55 -30 -86 -57 -67 -57 -126 -84 -244 -112 -118
-27 -187 -63 -245 -127 -46 -50 -243 -334 -257 -369 -9 -24 99 -128 161 -155
37 -16 72 -22 129 -23 100 -1 116 14 118 108 1 56 2 58 10 26 5 -19 12 -91 15
-160 5 -100 2 -157 -16 -285 -16 -114 -21 -181 -16 -235 13 -148 62 -300 97
-300 55 0 474 157 495 185 15 20 3 83 -29 155 -33 76 -47 143 -58 293 -16 220
-51 341 -107 367 -17 8 -90 14 -200 18 -95 2 -171 7 -168 9 2 2 111 11 242 18
303 18 399 40 483 111 35 29 61 73 61 102 0 26 -32 52 -122 101 -91 50 -169
117 -193 167 -13 28 -16 50 -11 92 4 35 2 59 -5 68 -13 16 -12 16 -54 3z"/>
<path d="M9707 8360 c-49 -13 -108 -43 -128 -66 -9 -11 -24 -43 -34 -72 -9
-29 -46 -101 -83 -160 -184 -300 -222 -387 -229 -522 -3 -52 -10 -101 -16
-109 -7 -7 -51 -40 -99 -72 -47 -32 -89 -63 -92 -68 -8 -13 26 -38 123 -90 85
-46 141 -98 141 -130 0 -49 189 -254 337 -365 118 -88 247 -158 303 -164 35
-3 69 5 155 37 130 49 211 60 274 37 65 -24 81 -21 194 37 62 32 139 63 193
76 108 27 187 68 242 124 22 23 92 103 156 177 114 133 167 212 153 226 -4 4
-80 27 -170 50 -351 91 -505 181 -587 344 -25 49 -65 106 -110 154 -38 42 -70
84 -70 95 0 10 16 38 35 61 56 67 51 85 -56 195 -167 173 -238 206 -454 211
-77 2 -157 -1 -178 -6z"/>
<path d="M4612 8254 c-65 -32 -126 -105 -182 -219 -46 -92 -48 -112 -19 -172
18 -38 19 -48 9 -100 -6 -32 -27 -109 -46 -170 -89 -287 -102 -573 -25 -548
26 8 129 -22 210 -63 105 -52 154 -104 176 -186 10 -36 26 -72 35 -81 24 -22
125 -29 253 -17 130 11 146 22 176 121 25 83 82 173 144 228 70 61 107 76 171
68 88 -11 157 14 226 83 58 59 100 142 100 200 0 81 59 223 184 444 42 75 76
140 76 146 0 15 -113 184 -138 206 -23 20 -23 20 -137 -28 -73 -31 -118 -32
-187 -5 -64 25 -109 21 -193 -18 -54 -24 -71 -27 -165 -27 -128 0 -206 20
-385 100 -159 70 -208 77 -283 38z"/>
<path d="M1372 8241 c-34 -10 -66 -21 -69 -25 -3 -3 64 -6 150 -6 87 0 157 3
157 8 0 37 -143 51 -238 23z"/>
<path d="M1531 8065 c-64 -14 -231 -76 -231 -85 0 -3 35 -23 77 -44 159 -78
247 -55 318 83 17 33 17 35 -1 48 -22 16 -80 16 -163 -2z"/>
<path d="M1764 8010 c-42 -21 -224 -184 -224 -202 0 -7 171 -237 237 -317 2
-3 40 32 86 77 89 86 122 103 165 81 47 -24 156 -141 176 -189 34 -83 40 -91
86 -125 42 -31 69 -69 84 -117 4 -13 16 -18 41 -18 44 0 80 18 120 60 27 28
30 39 33 110 6 119 -23 318 -68 461 -24 78 -57 156 -70 164 -5 3 -52 -6 -105
-20 -122 -31 -158 -31 -215 1 -95 54 -270 72 -346 34z"/>
<path d="M4174 7920 c-48 -44 -104 -90 -125 -102 -47 -26 -49 -42 -13 -141 45
-124 63 -217 74 -372 12 -173 29 -259 58 -288 18 -18 23 -19 38 -6 30 25 44
76 54 199 11 139 33 243 89 429 23 74 41 147 41 163 0 32 -18 71 -62 135 -51
75 -56 74 -154 -17z"/>
<path d="M10458 7984 c-59 -31 -65 -95 -14 -148 40 -43 72 -46 115 -11 52 44
62 113 23 158 -19 21 -86 22 -124 1z"/>
<path d="M6123 7948 c-27 -34 -167 -297 -197 -370 -19 -46 -39 -117 -45 -158
-23 -147 -103 -264 -219 -318 -47 -22 -71 -27 -142 -27 -71 0 -91 -4 -122 -23
-75 -47 -146 -160 -169 -271 -16 -76 -6 -108 56 -183 62 -75 105 -158 105
-204 0 -53 26 -74 105 -84 109 -15 731 -40 763 -31 87 25 138 80 151 161 13
81 18 83 193 90 84 3 159 9 165 13 9 6 11 25 6 67 -6 60 -6 60 33 97 21 20 58
45 81 55 53 23 78 18 229 -53 148 -69 173 -71 349 -21 184 52 261 69 376 82
175 20 258 54 245 103 -3 14 -58 81 -122 148 -64 67 -129 146 -145 174 -21 37
-44 60 -85 85 -117 72 -141 105 -183 255 -32 110 -77 204 -106 217 -35 16
-124 -29 -298 -153 -84 -60 -192 -132 -242 -161 -49 -29 -117 -75 -150 -102
-82 -66 -180 -111 -316 -145 -182 -45 -219 -72 -288 -205 -29 -56 -33 -72 -27
-108 11 -67 137 -314 195 -383 48 -55 65 -95 41 -95 -27 0 -169 226 -239 379
-28 61 -33 82 -29 125 6 63 47 152 99 212 26 30 39 55 39 74 0 33 -55 143
-131 261 -50 77 -51 80 -34 99 10 11 41 33 70 49 103 58 109 129 26 314 -24
52 -24 52 -38 35z"/>
<path d="M11739 7890 c-106 -54 -346 -122 -641 -179 -87 -17 -175 -31 -197
-31 -84 0 -220 73 -249 133 -17 34 -27 34 -63 -2 -46 -47 -37 -125 26 -216 73
-106 189 -165 470 -239 234 -61 267 -85 227 -159 -24 -46 -206 -263 -305 -365
-80 -82 -123 -107 -232 -132 -125 -30 -207 -72 -290 -151 -79 -76 -140 -171
-176 -274 -20 -58 -24 -89 -24 -180 1 -96 6 -127 39 -248 21 -76 36 -140 34
-143 -8 -7 -65 127 -84 197 -24 87 -23 269 0 364 10 39 42 116 72 172 30 56
54 107 54 112 0 6 -14 18 -32 27 -46 24 -143 13 -273 -30 -145 -49 -174 -48
-295 13 -54 27 -134 72 -177 100 -43 27 -90 54 -104 59 -71 28 -289 -64 -289
-121 0 -8 13 -43 30 -78 37 -82 80 -230 80 -280 0 -26 -16 -69 -54 -141 -49
-94 -115 -254 -131 -319 -6 -24 -1 -28 117 -83 147 -69 425 -216 486 -258 31
-22 50 -45 68 -86 14 -31 52 -104 86 -160 l61 -104 41 84 c56 114 115 190 366
478 74 86 168 196 208 246 78 98 205 216 427 396 251 206 270 232 573 814 267
512 279 554 227 792 -7 27 -8 27 -76 -8z"/>
<path d="M3873 7784 c-3 -8 4 -106 16 -217 32 -295 71 -455 131 -551 58 -91
76 -55 67 133 -11 211 -53 436 -102 546 -37 84 -96 131 -112 89z"/>
<path d="M2596 7613 c5 -43 9 -127 8 -188 0 -97 -3 -117 -28 -174 -51 -117
-46 -201 16 -278 44 -55 68 -111 68 -163 0 -70 -16 -80 -24 -15 -8 66 -24 103
-76 165 -57 69 -63 85 -55 151 l7 58 -73 -2 -73 -2 -33 60 c-53 96 -133 147
-150 98 -22 -68 -116 -213 -129 -201 -2 3 18 49 45 104 94 191 96 214 21 304
-48 57 -97 90 -134 90 -58 0 -178 -152 -180 -229 -1 -56 53 -130 214 -291 144
-144 333 -297 423 -343 30 -15 93 -37 140 -49 l85 -22 228 57 c267 67 366 82
430 66 25 -7 48 -9 51 -5 4 4 1 30 -5 59 -47 203 -48 239 -15 452 21 135 15
221 -17 247 -21 17 -34 19 -100 13 -68 -5 -79 -4 -120 19 -124 69 -143 75
-255 86 -60 5 -148 10 -194 10 l-83 0 8 -77z"/>
<path d="M8011 6763 c-19 -8 -91 -21 -160 -30 -114 -14 -252 -45 -461 -103
-97 -27 -129 -23 -275 41 -87 38 -135 53 -181 57 -60 4 -64 3 -93 -26 -28 -28
-31 -36 -31 -96 0 -88 -13 -146 -67 -306 -43 -125 -46 -143 -48 -245 -2 -130
-5 -139 -124 -340 -88 -147 -115 -203 -150 -307 -25 -76 -101 -189 -160 -240
-22 -19 -64 -48 -93 -64 -50 -27 -59 -29 -173 -29 -103 0 -127 -4 -169 -23
-60 -27 -45 -4 23 36 42 25 54 27 138 25 123 -4 182 18 267 98 68 63 119 152
151 261 9 31 54 121 101 200 148 247 148 246 150 375 3 122 26 209 97 366 l36
77 -127 0 c-155 0 -199 -10 -208 -48 -12 -49 -42 -99 -88 -144 -64 -65 -98
-71 -276 -53 -79 8 -150 11 -157 6 -11 -5 7 -30 67 -97 44 -49 83 -100 87
-112 3 -15 -2 -38 -16 -63 -27 -47 -23 -71 25 -178 43 -94 43 -122 -2 -194
-48 -77 -72 -88 -171 -80 -90 6 -137 -5 -183 -44 -26 -21 -30 -32 -30 -74 0
-42 -5 -54 -35 -88 -19 -21 -35 -44 -35 -50 0 -6 17 -46 39 -89 21 -42 55
-129 76 -192 56 -174 68 -206 129 -329 l56 -114 -1 -116 c-1 -136 6 -177 61
-345 l41 -125 -70 -133 c-147 -280 -267 -611 -273 -752 -4 -77 8 -83 209 -90
680 -24 902 -44 1103 -102 67 -19 133 -15 355 21 202 33 299 34 382 6 49 -16
86 -21 170 -21 152 1 164 7 353 198 l155 157 218 125 c120 68 242 146 271 172
102 91 124 186 106 466 -14 221 -27 255 -131 340 -84 69 -180 128 -232 144
-34 10 -49 8 -121 -15 -112 -37 -171 -75 -186 -122 -19 -58 -19 -392 0 -429 8
-17 48 -53 88 -82 97 -69 133 -104 124 -121 -18 -31 -114 -93 -146 -93 -40 0
-62 15 -166 115 -107 103 -131 118 -189 121 -26 1 -77 14 -112 29 -92 39 -187
65 -235 65 -65 0 -83 -21 -93 -110 -5 -41 -13 -87 -19 -101 -16 -41 -67 -77
-117 -83 -25 -3 -65 -8 -89 -11 -86 -11 -110 -70 -110 -270 1 -170 16 -226 92
-335 60 -84 70 -127 16 -65 -51 59 -103 139 -121 187 -37 101 -33 350 7 434
29 59 70 82 161 90 91 8 107 16 125 61 21 49 31 237 14 248 -7 4 -57 11 -112
15 -87 6 -102 10 -122 31 -51 53 -89 216 -101 437 -6 106 -10 127 -29 148 -25
30 -137 64 -208 64 -51 0 -47 4 -111 -94 -41 -64 -100 -96 -175 -96 -74 0
-116 23 -162 87 -35 49 -53 90 -102 228 l-14 40 -284 10 c-272 10 -280 11
-170 18 63 4 192 8 287 10 l171 2 74 -148 c40 -81 86 -160 101 -175 25 -24 36
-27 90 -26 102 1 132 16 164 82 37 74 69 97 136 95 56 -1 163 -26 214 -50 40
-18 53 -55 53 -147 1 -170 43 -412 81 -460 19 -24 24 -25 122 -23 93 2 105 0
133 -21 21 -16 55 -26 105 -33 41 -6 106 -22 144 -36 39 -14 94 -34 124 -45
30 -11 65 -17 78 -13 37 9 81 -20 189 -126 126 -123 140 -129 214 -92 30 16
55 35 55 43 0 8 -31 36 -70 62 -131 89 -165 147 -165 278 0 78 18 246 30 283
27 83 138 159 250 173 30 3 58 11 62 17 8 13 -11 65 -61 165 -62 123 -99 223
-111 299 -21 126 -32 176 -51 221 -27 62 -27 104 -1 137 27 34 28 55 2 97 -24
40 -25 70 -4 131 20 61 72 107 119 107 43 0 45 17 15 103 -36 101 -30 136 54
304 109 219 126 297 81 384 -35 67 -170 169 -225 169 -14 0 -58 -12 -98 -26
-89 -33 -104 -28 -177 56 -53 60 -92 90 -115 89 -8 0 -30 -7 -49 -16z"/>
<path d="M8873 6535 c-56 -8 -110 -18 -120 -24 -15 -8 -18 -24 -18 -104 l0
-94 -90 -178 c-79 -157 -89 -184 -89 -231 0 -62 52 -175 96 -207 l28 -21 67
28 c38 16 122 39 187 52 160 32 186 46 209 109 10 28 48 113 85 190 63 131 67
144 66 205 -1 71 -53 247 -80 275 -19 19 -190 19 -341 0z"/>
<path d="M5193 6503 c-28 -19 -29 -39 -3 -46 25 -7 53 15 49 38 -5 25 -19 27
-46 8z"/>
<path d="M5461 6259 c-26 -3 -50 -13 -57 -24 -18 -24 -18 -66 -1 -89 28 -38
176 -38 204 0 17 23 17 65 0 88 -16 22 -84 34 -146 25z"/>
<path d="M5716 6259 c-45 -7 -56 -21 -56 -71 0 -42 -16 -89 -33 -100 -7 -4
-46 -8 -87 -8 -109 -1 -150 -11 -171 -40 -29 -38 -70 -214 -71 -297 0 -109 37
-181 172 -327 51 -56 116 -106 137 -106 8 0 25 11 38 25 20 19 25 34 25 76 0
46 4 55 35 85 19 18 61 42 92 54 49 18 70 21 136 15 90 -8 119 4 143 60 24 58
22 70 -46 247 -21 53 -21 58 -6 89 9 18 16 44 16 59 0 37 -54 115 -113 162
-88 69 -142 89 -211 77z"/>
<path d="M4956 6041 c-20 -22 -14 -41 13 -41 22 0 41 19 41 42 0 24 -32 23
-54 -1z"/>
<path d="M8950 5724 c-135 -24 -203 -62 -242 -137 -11 -23 -29 -89 -39 -147
-23 -136 -29 -151 -93 -219 -65 -68 -76 -92 -76 -175 0 -164 143 -434 317
-596 114 -107 210 -160 290 -160 65 0 144 -100 173 -220 13 -53 22 -69 49 -87
44 -30 115 -43 229 -43 125 1 210 17 404 75 248 74 226 42 -31 -45 -207 -70
-297 -81 -487 -59 -51 6 -105 8 -120 5 -33 -9 -54 -58 -61 -145 -7 -79 0 -96
80 -193 141 -172 154 -332 38 -441 -60 -56 -110 -69 -149 -40 -36 27 -51 73
-51 163 -1 105 -9 115 -149 201 l-83 51 -177 -102 c-183 -106 -262 -161 -262
-185 0 -9 17 -16 48 -20 172 -24 386 -155 447 -276 34 -66 33 -143 -4 -289
-56 -219 -153 -448 -220 -517 l-36 -37 1 -126 c3 -182 45 -582 68 -641 4 -8
-4 -30 -17 -50 -28 -42 -76 -50 -134 -21 -115 59 -115 165 1 232 90 51 91 54
67 217 -11 76 -23 181 -26 233 -4 52 -11 102 -16 111 -11 21 -48 35 -123 49
-100 17 -166 13 -222 -15 -73 -36 -251 -191 -296 -256 -28 -41 -55 -66 -103
-94 -67 -40 -102 -76 -124 -133 -18 -43 -72 -89 -116 -98 -46 -8 -91 1 -174
36 -115 49 -161 38 -175 -43 -9 -51 -73 -119 -141 -152 -61 -29 -145 -34 -164
-11 -7 8 -16 67 -21 131 -10 127 -29 180 -56 154 -20 -21 -34 -172 -34 -377
l0 -183 -97 -46 c-135 -63 -157 -64 -269 -14 -95 42 -160 53 -170 27 -7 -17
13 -56 70 -142 24 -35 49 -84 55 -107 6 -24 39 -90 74 -148 35 -57 67 -113 71
-124 18 -44 23 -100 15 -178 -5 -50 -4 -96 2 -119 12 -47 142 -184 184 -194
18 -5 64 1 125 15 326 76 401 84 520 55 111 -27 165 -22 272 25 52 23 133 71
185 109 247 182 571 512 692 703 23 38 81 105 132 153 102 96 98 79 66 219
-21 94 -8 167 42 239 31 44 52 60 142 108 232 123 296 205 287 368 -4 66 -12
94 -52 183 -26 57 -54 123 -63 147 -14 40 -14 44 10 85 14 23 58 80 97 127
129 152 190 232 209 269 24 46 72 80 241 171 161 86 212 122 280 197 65 71
142 226 148 298 2 29 -5 106 -18 176 -15 86 -22 162 -22 247 1 144 -9 182 -98
392 -100 236 -106 261 -119 510 -13 234 -23 281 -83 394 -27 50 -60 115 -74
144 -17 34 -41 65 -68 84 -59 43 -478 249 -560 276 -69 23 -168 35 -216 26z
m-680 -4756 c18 -13 42 -35 53 -50 18 -24 19 -32 9 -66 -14 -45 -77 -121 -126
-151 -69 -43 -147 -14 -210 78 l-30 42 19 36 c22 40 86 99 130 119 48 21 117
17 155 -8z"/>
<path d="M8125 937 c-74 -37 -117 -77 -117 -111 0 -35 52 -91 99 -107 30 -10
41 -8 81 13 51 26 98 85 108 134 4 24 0 37 -18 58 -33 39 -89 44 -153 13z"/>
<path d="M8515 5661 c-53 -24 -76 -52 -85 -102 -11 -60 0 -93 33 -97 60 -7
217 94 217 139 0 31 -12 49 -41 64 -37 20 -75 19 -124 -4z"/>
<path d="M8562 5453 c-18 -9 -55 -37 -82 -62 -46 -44 -50 -50 -50 -95 0 -51
23 -106 44 -106 7 0 37 17 66 38 48 33 56 44 73 97 21 70 20 139 -3 142 -8 2
-30 -5 -48 -14z"/>
<path d="M12622 5008 c-18 -18 -14 -46 7 -58 11 -5 22 -10 25 -10 8 0 36 31
36 40 0 13 -30 40 -44 40 -6 0 -17 -5 -24 -12z"/>
<path d="M9082 4253 c-17 -7 -38 -50 -46 -94 -4 -24 1 -58 15 -105 19 -60 21
-84 16 -179 -7 -125 -29 -252 -52 -297 -19 -38 -14 -45 96 -129 90 -68 109
-102 109 -191 0 -122 50 -167 129 -115 57 38 75 84 68 177 -6 96 -36 161 -122
270 -38 47 -67 95 -71 114 -3 19 2 82 12 140 14 91 15 119 5 191 -23 165 -84
248 -159 218z"/>
<path d="M11498 3683 c-46 -102 -106 -180 -229 -297 -122 -116 -241 -197 -340
-233 -93 -32 -131 -61 -159 -118 -38 -79 -45 -154 -31 -341 13 -162 12 -171
-7 -229 -11 -33 -52 -115 -91 -182 -92 -157 -106 -209 -91 -340 25 -232 44
-284 123 -336 102 -67 118 -69 231 -36 200 59 244 126 351 529 50 188 110 377
231 723 157 450 180 556 151 694 -16 72 -83 243 -96 243 -4 0 -23 -35 -43 -77z"/>
<path d="M10736 3721 c-6 -10 31 -61 44 -61 13 0 18 36 8 54 -10 17 -43 22
-52 7z"/>
<path d="M8297 3080 c-190 -209 -225 -230 -378 -230 -49 0 -89 -4 -89 -8 0
-20 141 -239 231 -359 123 -164 237 -282 301 -311 64 -30 217 -55 302 -50 66
4 70 6 103 43 69 79 157 298 203 505 60 268 -9 372 -310 469 -52 16 -123 37
-157 46 -34 8 -68 18 -76 20 -7 3 -60 -47 -130 -125z"/>
<path d="M5782 2945 c-45 -20 -56 -53 -36 -113 9 -26 62 -139 119 -252 198
-397 282 -665 335 -1081 23 -179 42 -264 75 -333 40 -84 61 -98 148 -100 66
-2 85 -7 162 -45 99 -50 118 -50 211 -4 101 49 97 33 106 421 10 461 15 493
113 737 55 139 75 255 75 444 l0 160 33 5 c50 9 239 25 367 32 133 7 179 17
212 44 20 17 21 21 8 30 -28 18 -167 10 -343 -20 -96 -16 -201 -30 -234 -30
-32 0 -123 14 -203 31 -255 53 -307 59 -515 52 -166 -5 -205 -3 -312 16 -140
24 -273 27 -321 6z"/>
<path d="M7706 2824 c-78 -43 -138 -55 -237 -48 -71 5 -129 2 -218 -11 l-121
-18 0 -136 c0 -198 -19 -293 -100 -497 -63 -157 -80 -225 -80 -318 0 -81 12
-116 50 -151 43 -39 63 -95 70 -198 3 -54 12 -103 18 -109 9 -9 22 -8 54 1
104 31 178 93 178 150 0 30 26 78 49 91 37 19 106 11 182 -21 86 -37 148 -41
186 -13 14 11 45 53 68 94 31 55 52 81 81 97 42 23 226 185 362 315 l82 81
-102 106 c-117 121 -243 284 -349 451 -39 63 -79 123 -87 133 -18 21 -48 21
-86 1z"/>
<path d="M12746 2455 c-22 -17 -15 -45 12 -45 23 0 42 19 42 42 0 22 -27 23
-54 3z"/>
<path d="M12477 2329 c-37 -21 -8 -77 33 -64 13 4 20 15 20 30 0 29 -28 47
-53 34z"/>
<path d="M8665 1460 c-12 -4 -26 -14 -33 -23 -19 -22 -18 -82 2 -112 23 -35
75 -66 106 -63 22 3 25 8 28 47 4 53 -21 125 -51 146 -24 17 -24 17 -52 5z"/>
</g>
</svg>
